<svg width="28" height="28" viewBox="0 0 28 28" xmlns="http://www.w3.org/2000/svg">
    <path d="M14 0c7.732 0 14 6.268 14 14 0 3.043-.97 5.86-2.62 8.156-.281.392.145 1.728 1.28 4.008a.33.33 0 0 1-.347.472l-.073-.021-.073-.03c-2.407-.987-3.806-1.345-4.198-1.073A13.935 13.935 0 0 1 14 28a13.973 13.973 0 0 1-10.895-5.207c2.268 1.009 5.528 1.33 10.144.566 7.894-1.308 8.437-9.455 8.356-10.857-.04-1.157-.524-3.103-2.32-4.397-1.795-1.295-6.859-2.75-9.07 0-1.1 1.365-2.22 2.107-3.364 2.225 2.242 1.018 3.364 2.459 3.364 4.321 0 1.863-1.122 3.344-3.364 4.444-2.451.783-5.635.386-6.387-1.506A14.028 14.028 0 0 1 0 14C0 6.268 6.268 0 14 0zm-2.718 9.718a.741.741 0 1 1 0 1.482.741.741 0 0 1 0-1.482z" fill="#0C7DFF" fill-rule="nonzero"/>
</svg>
